<?xml version="1.0" encoding="iso-8859-1"?>
<!-- Generator: Adobe Illustrator 19.0.0, SVG Export Plug-In . SVG Version: 6.00 Build 0)  -->
<svg version="1.1" id="Capa_1" xmlns="http://www.w3.org/2000/svg" xmlns:xlink="http://www.w3.org/1999/xlink" x="0px" y="0px"
	 viewBox="0 0 361.535 361.535" style="enable-background:new 0 0 361.535 361.535;" xml:space="preserve">
<path style="fill:#1185E0;" d="M208.457,333.845c-4.18,0-7.837-1.567-10.971-4.702c-6.269-6.269-6.269-16.196,0-21.943
	l126.433-126.433L197.486,54.335c-6.269-6.269-6.269-16.196,0-21.943c6.269-6.269,16.196-6.269,21.943,0l137.404,137.404
	c6.269,6.269,6.269,16.196,0,21.943L219.429,329.143C216.294,332.278,212.637,333.845,208.457,333.845z"/>
<path style="fill:#4DCFE0;" d="M15.673,333.845c-4.18,0-7.837-1.567-10.971-4.702c-6.269-6.269-6.269-16.196,0-21.943
	l126.433-126.433L4.702,54.335c-6.269-6.269-6.269-16.196,0-21.943c6.269-6.269,16.196-6.269,21.943,0l137.404,137.404
	c3.135,3.135,4.702,6.792,4.702,10.971c0,4.18-1.567,8.359-4.702,10.971L26.645,329.143
	C23.51,332.278,19.853,333.845,15.673,333.845z"/>
<g>
</g>
<g>
</g>
<g>
</g>
<g>
</g>
<g>
</g>
<g>
</g>
<g>
</g>
<g>
</g>
<g>
</g>
<g>
</g>
<g>
</g>
<g>
</g>
<g>
</g>
<g>
</g>
<g>
</g>
</svg>
