<?xml version="1.0" encoding="iso-8859-1"?>
<!-- Generator: Adobe Illustrator 19.0.0, SVG Export Plug-In . SVG Version: 6.00 Build 0)  -->
<svg version="1.1" id="Layer_1" xmlns="http://www.w3.org/2000/svg" xmlns:xlink="http://www.w3.org/1999/xlink" x="0px" y="0px"
	 viewBox="0 0 512.002 512.002" style="enable-background:new 0 0 512.002 512.002;" xml:space="preserve">
<path style="fill:#FFCB5B;" d="M119.287,388.062c-4.552-2.96-7.288-8.016-7.28-13.439V31.999h287.987v342.624
	c0.008,5.424-2.728,10.48-7.28,13.439l-136.714,88.796L119.287,388.062z"/>
<circle style="fill:#2E485D;" cx="255.985" cy="375.982" r="8"/>
<path style="fill:#FFDB6F;" d="M112.008,31.999v231.989h11.999c6.624,0,11.999-5.376,11.999-11.999l0,0v-81.196
	c0.16-6.136,5.272-10.983,11.415-10.815c0.144,0,0.288,0.008,0.424,0.016l0,0c6.624,0.088,12.071-5.216,12.159-11.839
	c0-0.056,0-0.104,0-0.16V87.996c0-17.671,14.327-31.999,31.998-31.999h151.993c13.255,0,23.999-10.743,23.999-23.999H112.008z"/>
<g>
	<circle style="fill:#2E485D;" cx="159.99" cy="79.996" r="8"/>
	<circle style="fill:#2E485D;" cx="351.981" cy="79.996" r="8"/>
</g>
<path style="fill:#F7B84E;" d="M387.995,103.995c-6.624,0-11.999,5.376-11.999,11.999v73.197c0,5.968-4.832,10.799-10.799,10.799
	c-0.024,0-0.056,0-0.08,0h-1.12c-6.584-0.048-11.951,5.256-11.999,11.839c0,0.024,0,0.056,0,0.08v15.359l-6.96-1.04l-11.599-24.719
	c-1.4-3.008-4.968-4.304-7.968-2.912c-1.28,0.6-2.312,1.624-2.912,2.912l-11.599,24.719l-25.839,3.92
	c-3.256,0.6-5.416,3.728-4.816,6.984c0.192,1.056,0.672,2.04,1.376,2.856l18.879,19.359l-4.56,27.679
	c-0.536,3.272,1.672,6.36,4.944,6.896c1.32,0.216,2.68-0.016,3.856-0.656l23.199-12.719l21.279,11.759
	c-2.016,2.312-4.928,3.656-8,3.68h-1.2c-6.624-0.048-12.031,5.296-12.079,11.919c0,0.024,0,0.056,0,0.08v35.998
	c-0.056,35.566-18.119,68.693-47.998,87.996c-15.015,9.88-24.039,26.663-23.999,44.638l136.714-88.556
	c4.168-2.68,6.856-7.144,7.28-12.079l0,0V103.995H387.995z"/>
<path style="fill:#FFFFFF;" d="M367.996,220.15c-0.728-2.128-2.576-3.672-4.8-4l-25.839-3.92l-11.599-24.719
	c-1.4-3.008-4.968-4.304-7.968-2.912c-1.28,0.6-2.312,1.624-2.912,2.912l-11.599,24.719l-26.159,3.76
	c-3.272,0.536-5.488,3.616-4.96,6.888c0.192,1.2,0.752,2.312,1.6,3.192l18.879,19.359L288,273.027
	c-0.536,3.272,1.672,6.36,4.944,6.896c1.32,0.216,2.68-0.016,3.856-0.656l23.199-12.799l23.039,12.719
	c2.904,1.592,6.552,0.52,8.144-2.384c0.64-1.176,0.872-2.536,0.656-3.856l-4.4-27.359l18.879-19.359
	C367.98,224.685,368.628,222.334,367.996,220.15z"/>
<path style="fill:#DDDFE1;" d="M367.996,220.15c-0.728-2.128-2.576-3.672-4.8-4l-4-0.64l-0.56,0.8l-15.999,16.479
	c-1.768,1.824-2.576,4.376-2.16,6.88l3.52,23.359c0.536,3.272-1.672,6.36-4.944,6.896c-1.32,0.216-2.68-0.016-3.856-0.656
	l-19.199-10.64c-2.472-1.432-5.528-1.432-8,0l-19.199,10.64l0,0l-0.8,3.76c-0.536,3.272,1.672,6.36,4.944,6.896
	c1.32,0.216,2.68-0.016,3.856-0.656l23.199-12.799l23.039,12.719c2.904,1.592,6.552,0.52,8.144-2.384
	c0.64-1.176,0.872-2.536,0.656-3.856l-4.4-27.359l18.879-19.359C367.98,224.685,368.628,222.334,367.996,220.15z"/>
<path style="fill:#F7B84E;" d="M248.001,234.229c-0.728-2.128-2.576-3.672-4.8-4l-25.839-3.92l-11.599-24.719
	c-1.4-3.008-4.968-4.304-7.968-2.912c-1.28,0.6-2.312,1.624-2.912,2.912l-11.599,24.719l-25.839,3.92
	c-3.28,0.48-5.552,3.52-5.072,6.8c0.16,1.088,0.616,2.112,1.312,2.96l18.879,19.359l-4.56,27.679
	c-0.536,3.272,1.672,6.36,4.944,6.896c1.32,0.216,2.68-0.016,3.856-0.656l23.199-12.719l23.039,12.719
	c2.904,1.592,6.552,0.52,8.144-2.384c0.64-1.176,0.872-2.536,0.656-3.856l-4.48-27.439l18.959-19.599
	C247.865,238.509,248.505,236.309,248.001,234.229z"/>
<path style="fill:#FFFFFF;" d="M240.002,220.15c-0.728-2.128-2.576-3.672-4.8-4l-25.839-3.92l-11.599-24.719
	c-1.4-3.008-4.968-4.304-7.968-2.912c-1.28,0.6-2.312,1.624-2.912,2.912l-11.599,24.719l-26.159,3.76
	c-3.272,0.536-5.488,3.616-4.96,6.888c0.192,1.2,0.752,2.312,1.6,3.192l18.879,19.359l-4.64,27.599
	c-0.536,3.272,1.672,6.36,4.944,6.896c1.32,0.216,2.68-0.016,3.856-0.656l23.199-12.799l23.039,12.719
	c2.904,1.592,6.552,0.52,8.144-2.384c0.64-1.176,0.872-2.536,0.656-3.856l-4.4-27.359l18.879-19.359
	C239.986,224.685,240.634,222.334,240.002,220.15z"/>
<path style="fill:#DDDFE1;" d="M240.002,220.15c-0.728-2.128-2.576-3.672-4.8-4l-4-0.64l-0.56,0.8l-15.999,16.479
	c-1.768,1.824-2.576,4.376-2.16,6.88l3.52,23.359c0.536,3.272-1.672,6.36-4.944,6.896c-1.32,0.216-2.68-0.016-3.856-0.656
	l-19.199-10.64c-2.472-1.432-5.528-1.432-8,0l-19.199,10.64l0,0l-0.8,3.76c-0.536,3.272,1.672,6.36,4.944,6.896
	c1.32,0.216,2.68-0.016,3.856-0.656l23.199-12.799l23.039,12.719c2.904,1.592,6.552,0.52,8.144-2.384
	c0.64-1.176,0.872-2.536,0.656-3.856l-4.4-27.359l18.879-19.359C239.986,224.685,240.634,222.334,240.002,220.15z"/>
<path style="fill:#2D4961;" d="M399.994,0H112.008C94.337,0,80.009,14.327,80.009,31.999v342.624
	c0.08,16.159,8.288,31.191,21.839,39.998l145.433,94.796c5.304,3.448,12.135,3.448,17.439,0l145.433-94.556
	c13.551-8.808,21.759-23.839,21.839-39.998V31.999C431.993,14.327,417.665,0,399.994,0z M399.994,68.477
	c-6.872-6.24-15.399-10.352-24.559-11.839c-1.496-9.2-5.64-17.759-11.919-24.639h36.478V68.477z M148.486,31.999
	c-6.264,6.864-10.408,15.391-11.919,24.559c-9.168,1.512-17.695,5.656-24.559,11.919V31.999H148.486z M256.001,476.858
	l-26.479-17.199c11.047-4.6,20.327-12.623,26.479-22.879c6.152,10.256,15.431,18.279,26.479,22.879L256.001,476.858z
	 M399.994,374.622c0.008,5.424-2.728,10.48-7.28,13.439l-91.756,59.917c-20.895-1.592-37.022-19.039-36.958-39.998
	c0-4.416-3.584-8-8-8s-8,3.584-8,8c0.064,20.959-16.063,38.406-36.958,39.998l-91.756-59.917c-4.552-2.96-7.288-8.016-7.28-13.439
	V103.995c0-17.671,14.327-31.998,31.998-31.998c4.416,0,8-3.584,8-8c0-17.671,14.327-31.999,31.999-31.999h143.993
	c17.671,0,31.999,14.327,31.999,31.999c0,4.416,3.584,8,8,8c17.671,0,31.999,14.327,31.999,31.998L399.994,374.622L399.994,374.622z
	"/>
<path style="fill:#44637F;" d="M80.009,31.999v271.987l0,0c8.84,0,15.999-7.16,15.999-15.999V31.999
	c0-8.84,7.16-15.999,15.999-15.999h271.987c8.84,0,15.999-7.16,15.999-15.999H112.008C94.329,0,80.009,14.327,80.009,31.999z"/>
<path style="fill:#123247;" d="M410.154,414.861c13.551-8.808,21.759-23.839,21.839-39.998V55.997l0,0
	c-8.84,0-15.999,7.16-15.999,15.999v304.466c0,8.04-4.024,15.551-10.719,19.999L269.28,487.097
	c-8.304,5.56-13.287,14.887-13.279,24.879l0,0c3.096,0.008,6.12-0.88,8.72-2.56L410.154,414.861z"/>
<g>
</g>
<g>
</g>
<g>
</g>
<g>
</g>
<g>
</g>
<g>
</g>
<g>
</g>
<g>
</g>
<g>
</g>
<g>
</g>
<g>
</g>
<g>
</g>
<g>
</g>
<g>
</g>
<g>
</g>
</svg>
