<?xml version="1.0" encoding="iso-8859-1"?>
<!-- Generator: Adobe Illustrator 19.0.0, SVG Export Plug-In . SVG Version: 6.00 Build 0)  -->
<svg version="1.1" id="Layer_1" xmlns="http://www.w3.org/2000/svg" xmlns:xlink="http://www.w3.org/1999/xlink" x="0px" y="0px"
	 viewBox="0 0 512.002 512.002" style="enable-background:new 0 0 512.002 512.002;" xml:space="preserve">
<path style="fill:#FFCB5B;" d="M119.287,388.062c-4.552-2.96-7.288-8.016-7.28-13.439V31.999h287.987v342.624
	c0.008,5.424-2.728,10.48-7.28,13.439l-136.714,88.796L119.287,388.062z"/>
<path style="fill:#F7B84E;" d="M387.995,103.995c-6.624,0-11.999,5.376-11.999,11.999v73.197c0,5.968-4.832,10.799-10.799,10.799
	c-0.024,0-0.056,0-0.08,0h-1.12c-6.584-0.048-11.951,5.256-11.999,11.839c0,0.024,0,0.056,0,0.08v73.277
	c0,5.968-4.832,10.799-10.799,10.799c-0.024,0-0.056,0-0.08,0h-1.04c-6.624-0.048-12.031,5.296-12.079,11.919
	c0,0.024,0,0.056,0,0.08v35.998c-0.056,35.566-18.119,68.693-47.998,87.996l0,0c-15.015,9.88-24.039,26.663-23.999,44.638
	l136.714-88.556c4.168-2.68,6.856-7.144,7.28-12.079l0,0V103.995H387.995z"/>
<circle style="fill:#2E485D;" cx="255.985" cy="375.982" r="8"/>
<path style="fill:#FFDB6F;" d="M112.008,31.999v231.989h11.999c6.624,0,11.999-5.376,11.999-11.999l0,0v-81.196
	c0.16-6.136,5.272-10.983,11.415-10.815c0.144,0,0.288,0.008,0.424,0.016l0,0c6.624,0.088,12.071-5.216,12.159-11.839
	c0-0.056,0-0.104,0-0.16V87.996c0-17.671,14.327-31.999,31.998-31.999h151.993c13.255,0,23.999-10.743,23.999-23.999H112.008z"/>
<path style="fill:#F7B84E;" d="M327.598,215.59c-0.96-2.848-3.432-4.92-6.4-5.36l-34.478-5.28L271.2,171.912
	c-1.88-4-6.648-5.72-10.64-3.84c-1.688,0.792-3.04,2.152-3.84,3.84l-15.519,33.038l-34.478,5.28
	c-4.384,0.552-7.488,4.56-6.928,8.944c0.232,1.84,1.096,3.544,2.448,4.816l25.199,25.839l-5.92,36.558
	c-0.536,4.384,2.584,8.376,6.968,8.912c1.656,0.2,3.328-0.12,4.792-0.912l30.719-17.039l30.719,16.959
	c3.88,2.112,8.736,0.672,10.847-3.208c0.792-1.464,1.112-3.136,0.912-4.792l-5.92-36.558l25.199-25.759
	C327.95,221.782,328.67,218.51,327.598,215.59z"/>
<g>
	<circle style="fill:#2E485D;" cx="159.99" cy="79.996" r="8"/>
	<circle style="fill:#2E485D;" cx="351.981" cy="79.996" r="8"/>
</g>
<path style="fill:#FFFFFF;" d="M319.598,201.511c-0.96-2.848-3.432-4.92-6.4-5.36l-34.478-5.28l-15.519-33.038
	c-1.88-4-6.648-5.72-10.639-3.84c-1.688,0.792-3.04,2.152-3.84,3.84l-15.519,33.038l-34.478,5.28
	c-4.368,0.672-7.36,4.76-6.688,9.128c0.256,1.656,1.032,3.2,2.208,4.392l25.199,25.839l-5.92,36.478
	c-0.536,4.384,2.584,8.376,6.968,8.912c1.656,0.2,3.328-0.12,4.792-0.912l30.719-16.719l30.719,16.719
	c3.88,2.112,8.736,0.672,10.847-3.208c0.792-1.464,1.112-3.136,0.912-4.792l-5.92-36.558l25.199-25.839
	C319.822,207.446,320.534,204.334,319.598,201.511z"/>
<path style="fill:#DDDFE1;" d="M319.598,201.511c-0.96-2.848-3.432-4.92-6.4-5.36l-7.28-1.12c-0.328,0.584-0.736,1.12-1.2,1.6
	L286.08,215.99c-4.128,4.224-5.968,10.176-4.96,15.999l4.48,27.359c0.536,4.384-2.584,8.376-6.968,8.912
	c-1.656,0.2-3.328-0.12-4.792-0.912l-23.999-13.119c-4.408-2.432-9.752-2.432-14.159,0l-21.519,11.839l-0.64,5.92
	c-0.536,4.384,2.584,8.376,6.968,8.912c1.656,0.2,3.328-0.12,4.792-0.912l30.719-16.719l30.719,16.719
	c3.88,2.112,8.736,0.672,10.847-3.208c0.792-1.464,1.112-3.136,0.912-4.792l-5.92-36.558l25.199-25.839
	C319.822,207.446,320.534,204.334,319.598,201.511z"/>
<path style="fill:#2D4961;" d="M399.994,0H112.008C94.337,0,80.009,14.327,80.009,31.999v342.624
	c0.08,16.159,8.288,31.191,21.839,39.998l145.433,94.796c5.304,3.448,12.135,3.448,17.439,0l145.433-94.556
	c13.551-8.808,21.759-23.839,21.839-39.998V31.999C431.993,14.327,417.665,0,399.994,0z M399.994,68.477
	c-6.872-6.24-15.399-10.352-24.559-11.839c-1.496-9.2-5.64-17.759-11.919-24.639h36.478V68.477z M148.486,31.999
	c-6.264,6.864-10.408,15.391-11.919,24.559c-9.168,1.512-17.695,5.656-24.559,11.919V31.999H148.486z M256.001,476.858
	l-26.479-17.199c11.047-4.6,20.327-12.623,26.479-22.879c6.152,10.256,15.431,18.279,26.479,22.879L256.001,476.858z
	 M399.994,374.622c0.008,5.424-2.728,10.48-7.28,13.439l-91.756,59.917c-20.895-1.592-37.022-19.039-36.958-39.998
	c0-4.416-3.584-8-8-8s-8,3.584-8,8c0.064,20.959-16.063,38.406-36.958,39.998l-91.756-59.917c-4.552-2.96-7.288-8.016-7.28-13.439
	V103.995c0-17.671,14.327-31.998,31.998-31.998c4.416,0,8-3.584,8-8c0-17.671,14.327-31.999,31.999-31.999h143.993
	c17.671,0,31.999,14.327,31.999,31.999c0,4.416,3.584,8,8,8c17.671,0,31.999,14.327,31.999,31.998L399.994,374.622L399.994,374.622z
	"/>
<path style="fill:#44637F;" d="M80.009,31.999v271.987l0,0c8.84,0,15.999-7.16,15.999-15.999V31.999
	c0-8.84,7.16-15.999,15.999-15.999h271.987c8.84,0,15.999-7.16,15.999-15.999H112.008C94.329,0,80.009,14.327,80.009,31.999z"/>
<path style="fill:#123247;" d="M410.154,414.861c13.551-8.808,21.759-23.839,21.839-39.998V55.997l0,0
	c-8.84,0-15.999,7.16-15.999,15.999v304.466c0,8.04-4.024,15.551-10.719,19.999L269.28,487.097
	c-8.304,5.56-13.287,14.887-13.279,24.879l0,0c3.096,0.008,6.12-0.88,8.72-2.56L410.154,414.861z"/>
<g>
</g>
<g>
</g>
<g>
</g>
<g>
</g>
<g>
</g>
<g>
</g>
<g>
</g>
<g>
</g>
<g>
</g>
<g>
</g>
<g>
</g>
<g>
</g>
<g>
</g>
<g>
</g>
<g>
</g>
</svg>
